{"glyphs":{"0":{"ha":889,"x_min":0,"x_max":0,"o":"m 72 625 b 151 140 -4 467 18 261 b 410 54 221 78 314 44 b 656 144 496 63 583 93 b 861 600 800 249 903 419 b 72 625 776 963 213 913 z m 563 325 b 290 290 483 263 374 226 b 275 550 217 349 210 465 b 407 646 307 597 354 632 b 663 464 553 683 703 636 b 563 325 647 408 606 358 z "},"1":{"ha":472,"x_min":0,"x_max":0,"o":"m 324 931 b 182 864 265 932 224 896 b 68 785 144 838 106 811 b 32 646 25 754 0 696 b 169 611 60 606 124 579 b 242 663 193 628 217 644 b 242 660 242 663 242 661 b 240 479 242 599 240 539 b 238 119 239 358 239 239 b 338 18 238 67 283 17 b 438 119 392 21 438 63 b 442 660 439 300 440 481 b 443 790 442 703 444 747 b 324 931 439 860 399 926 z "},"2":{"ha":669,"x_min":0,"x_max":0,"o":"m 643 642 b 35 738 651 997 167 986 b 71 599 11 689 22 625 b 208 635 118 574 181 586 b 288 703 221 661 253 686 b 421 575 397 756 482 688 b 146 308 360 467 238 376 b 38 153 90 267 39 218 b 106 32 36 104 61 56 b 322 10 169 -4 251 7 b 543 29 396 14 469 19 b 613 58 569 33 593 39 b 543 229 669 115 631 240 b 353 213 479 222 417 217 b 471 318 393 246 432 282 b 643 642 560 406 640 511 z "},"3":{"ha":649,"x_min":0,"x_max":0,"o":"m 443 547 b 528 833 513 619 586 736 b 342 928 489 900 414 924 b 118 900 267 932 190 921 b 49 776 68 885 32 828 b 172 706 65 726 118 690 b 267 735 192 711 232 726 b 325 686 347 754 378 725 b 244 628 304 671 269 646 b 176 504 201 596 175 554 b 269 389 179 446 217 407 b 331 374 289 383 311 379 b 343 258 444 343 407 288 b 153 253 279 235 210 236 b 29 182 104 269 40 235 b 100 60 17 128 46 76 b 594 213 275 7 499 56 b 443 547 679 358 572 494 z "},"4":{"ha":703,"x_min":0,"x_max":0,"o":"m 585 764 b 485 664 526 761 490 719 b 471 493 479 607 475 550 b 254 458 397 482 325 471 b 411 856 304 601 356 731 b 421 933 422 882 431 904 b 375 992 415 956 397 981 b 239 956 332 1015 261 1008 b 31 431 158 769 75 589 b 118 257 8 356 43 281 b 260 258 165 240 213 251 b 458 289 325 268 393 279 b 456 119 457 232 456 176 b 556 19 454 67 501 17 b 657 119 611 21 656 63 b 685 664 658 301 667 483 b 585 764 690 717 635 765 z "},"5":{"ha":622,"x_min":0,"x_max":0,"o":"m 444 526 b 225 567 374 558 299 567 b 239 676 229 606 236 640 b 454 689 310 676 382 681 b 525 718 481 692 506 699 b 554 789 543 736 556 764 b 454 889 553 839 510 894 b 151 878 349 878 250 878 b 51 778 89 875 60 829 b 33 642 44 732 39 688 b 29 500 28 594 18 546 b 140 382 43 442 86 403 b 311 360 199 360 256 368 b 383 278 378 354 410 310 b 181 253 343 233 229 239 b 58 182 129 264 69 236 b 128 58 46 131 72 71 b 419 69 221 38 329 33 b 600 289 515 107 594 179 b 444 526 606 389 535 486 z "},"6":{"ha":761,"x_min":0,"x_max":0,"o":"m 368 618 b 510 754 413 667 460 711 b 510 897 549 789 547 863 b 368 897 467 935 410 933 b 54 490 233 782 111 646 b 250 11 -14 303 39 53 b 685 186 410 -21 597 61 b 699 467 743 269 763 375 b 368 618 625 569 481 604 z m 226 279 b 246 428 217 328 232 389 b 486 382 326 425 415 418 b 526 317 515 367 535 346 b 226 279 499 217 253 149 z "},"7":{"ha":681,"x_min":0,"x_max":0,"o":"m 392 944 b 122 922 301 938 213 929 b 24 821 71 918 21 879 b 122 721 25 771 67 715 b 432 749 247 731 340 743 b 178 175 367 597 242 324 b 167 97 165 149 158 125 b 213 38 172 72 192 49 b 349 72 256 14 328 21 b 599 633 413 218 536 489 b 622 908 635 718 704 828 b 392 944 561 972 469 951 z "},"8":{"ha":664,"x_min":0,"x_max":0,"o":"m 568 501 b 597 746 615 572 628 667 b 56 708 500 1017 117 971 b 108 496 39 640 51 565 b 54 411 88 474 68 443 b 300 1 -25 214 83 25 b 639 363 496 -19 669 151 b 568 501 631 417 604 464 z m 383 574 b 269 639 361 588 288 604 b 350 749 235 704 294 751 b 383 574 447 742 443 622 z m 246 300 b 324 406 258 340 290 381 b 360 203 449 407 474 228 b 246 300 299 189 222 222 z "},"9":{"ha":711,"x_min":0,"x_max":0,"o":"m 156 856 b 29 631 82 800 38 724 b 410 331 15 429 221 257 b 285 217 386 286 333 243 b 250 79 240 189 221 125 b 388 43 278 33 339 14 b 658 378 515 118 608 238 b 589 821 710 524 710 707 b 156 856 475 931 286 954 z m 351 515 b 232 632 269 514 219 574 b 419 706 250 714 354 740 b 351 515 536 632 457 522 z "},"\u0000":{"ha":0,"x_min":0,"x_max":0,"o":""},"\r":{"ha":481,"x_min":0,"x_max":0,"o":""}," ":{"ha":481,"x_min":0,"x_max":0,"o":""},"T":{"ha":822,"x_min":0,"x_max":0,"o":"m 700 1124 b 121 1089 507 1104 314 1092 b 19 986 68 1088 17 1043 b 121 886 22 933 64 885 b 326 893 189 888 257 889 b 311 51 319 611 315 332 b 411 -50 310 -3 358 -53 b 513 51 468 -49 511 -6 b 528 906 518 336 522 621 b 528 907 528 906 528 906 b 700 922 586 911 643 915 b 771 951 728 925 751 932 b 801 1024 789 969 803 999 b 700 1124 800 1074 757 1129 z "},"U":{"ha":797,"x_min":0,"x_max":0,"o":"m 593 1076 b 522 951 538 1057 513 1007 b 568 572 544 817 567 697 b 526 310 568 475 558 390 b 240 410 443 103 304 164 b 204 915 200 581 199 754 b 103 1017 207 969 157 1019 b 3 915 46 1013 4 972 b 46 353 4 735 1 535 b 440 -29 92 163 218 -58 b 725 249 565 -12 679 107 b 768 492 751 328 763 411 b 717 1006 778 664 750 838 b 593 1076 707 1057 642 1092 z "},"u":{"ha":768,"x_min":0,"x_max":0,"o":"m 222 89 b 607 126 343 17 500 36 b 746 453 704 204 738 332 b 738 653 751 518 744 586 b 693 899 729 736 715 818 b 571 969 681 950 622 986 b 500 846 518 951 488 900 b 543 447 536 711 556 576 b 389 247 532 342 492 247 b 233 407 299 247 250 335 b 239 857 204 510 229 758 b 139 957 243 910 189 960 b 39 857 79 956 44 914 b 24 646 31 786 26 717 b 222 89 15 439 33 200 z "},"v":{"ha":864,"x_min":0,"x_max":0,"o":"m 849 794 b 779 918 867 844 829 907 b 656 849 722 932 674 901 b 461 407 596 683 532 543 b 381 400 417 318 417 315 b 211 897 325 532 260 721 b 88 965 199 947 139 983 b 18 843 36 950 3 897 b 239 238 72 642 147 419 b 353 110 264 189 303 138 b 593 232 479 54 540 144 b 849 794 697 411 775 601 z "},"w":{"ha":1069,"x_min":0,"x_max":0,"o":"m 528 543 b 719 204 582 417 639 303 b 831 107 750 168 786 129 b 964 108 874 89 921 85 b 1031 197 996 128 1021 161 b 1036 561 1053 283 1039 469 b 1014 925 1033 683 1025 804 b 914 1026 1010 978 972 1029 b 814 925 863 1024 808 982 b 836 572 825 808 832 690 b 742 554 844 364 825 361 b 642 783 706 631 678 710 b 443 807 604 861 499 871 b 319 571 385 742 354 644 b 229 576 229 382 233 396 b 232 917 226 689 228 804 b 132 1018 235 969 185 1021 b 32 917 76 1017 35 975 b 46 274 22 703 28 488 b 157 96 51 196 79 118 b 268 106 193 83 233 88 b 332 178 297 122 315 150 b 528 543 415 297 464 422 z "},"W":{"ha":1161,"x_min":0,"x_max":0,"o":"m 1074 949 b 949 1018 1063 1000 997 1033 b 878 893 892 1000 868 950 b 926 407 907 729 929 569 b 793 343 924 272 897 161 b 676 603 747 431 706 514 b 593 675 664 643 633 671 b 492 628 557 681 507 664 b 428 476 471 578 450 528 b 254 290 344 279 281 143 b 253 974 217 494 225 767 b 224 1046 256 997 240 1029 b 153 1075 206 1064 178 1075 b 81 1046 126 1074 100 1065 b 51 974 61 1024 56 1001 b 214 -8 22 764 -39 100 b 406 17 276 -35 350 -21 b 578 317 500 94 532 213 b 847 21 639 201 707 47 b 1032 76 914 8 986 25 b 1101 224 1071 117 1090 169 b 1124 561 1125 335 1131 447 b 1074 949 1117 692 1094 819 z "},"X":{"ha":828,"x_min":0,"x_max":0,"o":"m 503 617 b 714 1008 574 747 644 878 b 679 1146 739 1054 728 1121 b 540 1111 632 1171 567 1160 b 378 808 486 1008 431 908 b 347 854 368 822 357 839 b 207 1050 301 919 254 985 b 68 1088 175 1093 117 1118 b 32 949 26 1058 -1 994 b 268 607 114 836 193 722 b 36 172 192 461 114 317 b 71 33 10 125 22 60 b 210 68 118 8 183 19 b 394 413 272 183 332 297 b 500 239 429 356 465 297 b 619 29 540 169 582 100 b 758 -8 644 -17 713 -36 b 794 131 804 22 822 82 b 503 617 703 296 606 458 z "},"x":{"ha":725,"x_min":0,"x_max":0,"o":"m 539 904 b 379 739 485 851 432 796 b 222 922 328 801 275 863 b 81 922 186 961 117 961 b 81 781 42 881 43 822 b 247 586 138 717 192 653 b 39 317 174 499 104 408 b 75 179 8 274 31 204 b 213 215 126 153 179 171 b 371 425 271 296 321 361 b 493 253 415 367 454 310 b 631 215 524 208 583 185 b 667 353 674 244 699 307 b 504 579 615 431 561 504 b 681 763 563 643 621 704 b 681 904 719 800 721 869 b 539 904 640 942 579 944 z "},"y":{"ha":828,"x_min":0,"x_max":0,"o":"m 82 615 b 335 365 129 492 199 365 b 596 528 439 367 543 443 b 574 324 583 461 586 388 b 210 200 538 171 321 160 b 86 129 158 214 99 182 b 156 6 74 76 101 21 b 771 307 449 -75 729 -12 b 801 574 783 396 792 485 b 833 872 811 672 822 771 b 760 968 838 914 799 960 b 646 922 713 979 675 960 b 271 675 574 828 353 425 b 214 893 243 744 226 815 b 90 964 204 944 138 979 b 19 840 35 944 11 896 b 82 615 33 763 53 689 z "},"Y":{"ha":838,"x_min":0,"x_max":0,"o":"m 763 972 b 635 931 715 993 663 974 b 544 796 603 882 574 838 b 221 729 433 639 249 429 b 226 953 214 806 221 889 b 126 1054 232 1006 176 1056 b 24 953 65 1051 32 1008 b 138 411 8 789 19 532 b 433 389 218 328 339 333 b 518 453 464 407 492 429 b 415 11 485 306 449 158 b 485 -112 401 -40 431 -101 b 610 -42 538 -125 597 -99 b 819 853 679 256 750 554 b 763 972 832 903 810 951 z "},"z":{"ha":718,"x_min":0,"x_max":0,"o":"m 696 219 b 596 319 693 269 651 324 b 324 294 506 313 414 303 b 326 297 325 296 325 297 b 596 642 415 413 518 518 b 642 831 632 699 665 764 b 499 944 621 894 561 933 b 89 897 358 961 214 932 b 18 774 39 883 3 825 b 142 704 36 722 88 688 b 425 750 244 731 332 740 b 82 281 329 567 156 465 b 186 89 50 197 94 101 b 289 92 221 85 256 89 b 390 101 322 96 357 99 b 596 118 458 107 528 113 b 696 219 647 122 699 161 z "},"Z":{"ha":786,"x_min":0,"x_max":0,"o":"m 760 108 b 636 179 742 167 692 186 b 299 146 517 163 408 151 b 381 306 324 200 353 254 b 640 794 475 479 574 628 b 458 1040 701 949 601 1040 b 99 1014 336 1043 215 1032 b 29 890 44 1007 14 935 b 153 819 47 833 97 811 b 172 822 158 821 165 821 b 188 824 176 822 186 824 b 432 838 269 832 350 840 b 440 838 435 838 438 838 b 439 836 440 838 440 838 b 158 318 365 653 246 493 b 99 14 113 225 40 104 b 328 -54 147 -67 250 -61 b 690 -15 451 -44 572 -32 b 749 31 713 -12 739 11 b 760 108 763 53 768 83 z "},"S":{"ha":675,"x_min":0,"x_max":0,"o":"m 468 503 b 303 592 414 533 356 557 b 363 842 185 676 225 807 b 454 835 392 849 422 846 b 592 869 504 817 565 819 b 557 1008 617 915 607 985 b 189 978 438 1067 299 1053 b 35 619 75 900 -14 761 b 383 317 94 451 253 399 b 426 200 443 279 453 233 b 169 168 372 136 239 144 b 46 99 119 183 58 150 b 115 -28 33 42 63 -10 b 519 17 244 -67 404 -61 b 646 176 578 57 624 108 b 613 379 667 243 654 321 b 468 503 576 432 524 471 z "},"h":{"ha":761,"x_min":0,"x_max":0,"o":"m 154 -28 b 254 72 204 -26 258 17 b 233 339 246 161 239 250 b 524 382 331 354 428 368 b 522 31 521 265 521 149 b 622 -69 522 -22 567 -72 b 724 31 676 -67 724 -25 b 751 875 718 313 729 594 b 651 975 756 928 701 978 b 551 875 593 974 556 932 b 532 585 543 778 536 682 b 221 539 429 571 326 554 b 213 889 217 656 214 772 b 113 989 213 942 167 992 b 14 889 60 988 13 944 b 54 72 15 617 28 343 b 154 -28 58 21 94 -31 z "},"k":{"ha":831,"x_min":0,"x_max":0,"o":"m 731 347 b 356 474 604 385 479 426 b 521 589 411 511 465 551 b 736 742 593 640 664 692 b 771 881 779 771 803 832 b 633 915 744 922 679 949 b 244 642 504 824 374 733 b 249 1000 246 761 247 881 b 149 1100 250 1053 203 1103 b 49 1000 93 1099 49 1056 b 32 19 42 672 36 346 b 132 -82 31 -33 79 -83 b 235 19 189 -79 232 -37 b 239 301 236 113 238 207 b 404 242 293 279 349 261 b 676 153 494 208 585 179 b 801 224 726 138 789 171 b 731 347 814 276 785 332 z "},"m":{"ha":1122,"x_min":0,"x_max":0,"o":"m 685 389 b 903 656 760 469 825 576 b 871 106 893 472 882 289 b 972 6 868 54 919 4 b 1072 106 1029 8 1069 50 b 1107 724 1083 313 1094 518 b 1101 864 1110 769 1117 819 b 922 954 1079 942 999 988 b 706 732 847 924 753 792 b 568 561 657 675 615 614 b 469 611 540 531 518 531 b 310 849 417 692 369 774 b 158 933 271 896 222 936 b 25 779 72 929 32 856 b 25 444 15 669 19 554 b 63 86 31 324 46 204 b 186 15 71 32 139 0 b 256 139 243 33 265 82 b 229 401 247 229 235 314 b 222 628 224 476 222 551 b 310 492 250 582 278 536 b 543 319 364 411 433 315 b 685 389 597 321 647 349 z "},"p":{"ha":700,"x_min":0,"x_max":0,"o":"m 661 654 b 603 938 692 754 674 860 b 331 1042 535 1013 429 1042 b 32 829 206 1036 -24 1010 b 31 50 28 569 26 310 b 132 -51 31 -1 76 -54 b 232 50 185 -47 232 -7 b 229 317 231 139 229 228 b 661 654 417 324 611 486 z m 229 517 b 233 831 231 622 232 726 b 235 832 233 832 235 832 b 400 835 279 839 347 849 b 468 708 464 818 482 763 b 229 517 440 614 322 525 z "},"q":{"ha":822,"x_min":0,"x_max":0,"o":"m 636 -43 b 672 94 689 -8 692 44 b 619 215 654 135 638 175 b 792 486 704 283 769 378 b 606 906 828 656 756 829 b 604 908 606 907 606 908 b 481 979 589 960 536 994 b 107 713 329 938 196 843 b 74 264 18 582 -11 404 b 443 124 156 129 308 89 b 500 -8 463 79 481 36 b 636 -43 521 -60 599 -69 z m 403 726 b 458 758 421 738 439 747 b 467 763 461 760 464 761 b 467 763 467 763 467 763 b 467 763 467 763 467 763 b 538 413 590 706 650 496 b 403 726 493 517 449 622 z m 254 568 b 364 313 290 482 326 397 b 254 568 213 315 201 464 z "},"r":{"ha":642,"x_min":0,"x_max":0,"o":"m 236 196 b 465 124 313 167 389 144 b 589 194 518 111 578 140 b 519 318 600 246 574 303 b 435 340 490 325 463 332 b 619 658 539 419 615 531 b 404 983 625 801 536 931 b 169 1021 329 1014 243 1026 b 106 1043 153 1035 132 1044 b 6 943 54 1040 3 999 b 38 126 21 671 33 399 b 138 26 39 74 83 24 b 238 126 190 28 239 69 b 236 196 238 150 236 174 z m 360 538 b 229 457 325 499 278 472 b 214 822 225 579 219 700 b 215 822 214 822 215 822 b 356 783 268 814 318 806 b 360 538 450 728 418 601 z "},"t":{"ha":686,"x_min":0,"x_max":0,"o":"m 119 781 b 208 776 150 778 179 776 b 167 107 189 553 175 331 b 267 6 164 53 214 3 b 367 107 322 8 364 49 b 408 775 376 329 390 553 b 565 783 463 776 514 779 b 665 883 618 788 668 826 b 565 983 664 933 621 989 b 119 979 418 972 268 971 b 19 881 68 983 18 932 b 119 781 22 824 64 783 z "},"O":{"ha":1029,"x_min":0,"x_max":0,"o":"m 292 981 b 88 749 206 924 133 843 b 117 186 1 575 -4 347 b 408 18 189 90 289 33 b 726 88 518 6 633 32 b 999 608 900 193 1021 403 b 292 981 960 964 604 1190 z m 615 844 b 797 596 718 806 783 699 b 725 351 807 508 776 418 b 493 217 661 275 583 225 b 263 349 381 207 304 267 b 615 844 161 556 351 953 z "},"`":{"ha":286,"x_min":0,"x_max":0,"o":"m 232 933 b 129 1010 196 956 160 982 b 42 999 106 1032 61 1024 b 53 915 21 969 28 939 b 157 839 85 888 119 863 b 243 850 183 821 224 824 b 232 933 261 875 261 915 z "},"@":{"ha":1175,"x_min":0,"x_max":0,"o":"m 632 1092 b 96 786 417 1093 199 982 b 165 175 -4 579 14 343 b 879 39 342 -24 640 -62 b 935 82 903 47 921 58 b 944 153 947 101 951 131 b 829 218 931 197 878 239 b 328 275 665 150 458 153 b 294 739 201 397 193 607 b 536 894 356 819 442 875 b 756 890 610 911 688 910 b 943 749 835 867 910 818 b 926 588 960 714 971 603 b 894 672 914 583 903 608 b 851 768 888 704 875 740 b 625 810 804 825 711 828 b 358 492 472 775 339 658 b 538 285 368 390 436 304 b 797 358 631 264 729 292 b 842 418 815 378 831 396 b 968 406 882 400 926 394 b 1147 707 1099 429 1160 588 b 632 1092 1115 957 865 1090 z m 572 567 b 724 672 600 619 665 669 b 679 511 721 622 706 554 b 572 567 632 438 515 450 z "},"!":{"ha":263,"x_min":0,"x_max":0,"o":"m 140 999 b 40 899 83 996 44 954 b 31 425 29 742 24 582 b 131 324 33 371 76 321 b 231 425 183 326 233 368 b 240 899 225 582 229 742 b 140 999 244 950 192 1000 z m 133 232 b 35 132 82 232 32 185 b 133 32 36 78 78 32 b 233 132 186 32 236 78 b 133 232 232 186 190 232 z "},"\"":{"ha":367,"x_min":0,"x_max":0,"o":"m 140 1108 b 96 1126 129 1119 110 1128 b 32 1063 64 1126 28 1099 b 36 943 36 1024 38 983 b 100 879 36 908 67 876 b 164 943 135 881 164 907 b 160 1063 165 983 164 1024 b 140 1108 157 1081 154 1096 z m 306 1108 b 261 1126 294 1119 275 1128 b 197 1063 229 1126 193 1099 b 201 943 201 1024 203 983 b 265 879 201 908 232 876 b 329 943 300 881 329 907 b 325 1063 331 983 329 1024 b 306 1108 322 1081 319 1096 z "},"#":{"ha":1114,"x_min":0,"x_max":0,"o":"m 986 826 b 869 819 947 824 908 821 b 894 950 878 864 885 907 b 825 1074 906 1001 879 1063 b 701 1004 775 1085 713 1060 b 664 807 688 939 676 874 b 496 792 608 803 553 797 b 496 800 496 794 496 797 b 511 894 503 832 507 863 b 501 972 515 924 515 947 b 440 1018 488 993 465 1014 b 317 949 393 1029 326 1004 b 293 768 308 889 300 829 b 101 740 228 760 165 750 b 31 617 49 732 17 664 b 154 546 49 561 99 538 b 258 563 190 551 224 557 b 268 564 261 564 264 564 b 260 488 265 539 263 513 b 108 456 208 479 158 467 b 38 332 57 443 21 383 b 161 263 56 279 107 250 b 242 279 189 268 214 274 b 233 163 239 240 236 200 b 333 61 229 108 282 58 b 433 163 390 64 431 106 b 444 317 436 214 440 265 b 474 321 456 318 464 319 b 481 321 449 318 478 321 b 503 324 488 322 494 322 b 603 333 535 328 569 331 b 589 133 597 268 592 200 b 689 33 585 81 636 32 b 789 133 744 36 786 78 b 804 346 792 206 797 275 b 868 347 825 347 846 347 b 967 447 919 349 969 393 b 868 547 965 501 924 549 b 826 547 854 547 840 547 b 828 553 826 549 826 551 b 836 618 832 576 832 597 b 986 625 886 621 935 622 b 1086 725 1039 626 1089 669 b 986 826 1085 776 1042 828 z m 624 538 b 464 521 571 533 517 528 b 465 538 465 526 465 532 b 471 589 468 554 469 572 b 560 597 501 592 531 594 b 633 604 583 599 608 601 b 624 538 629 582 626 560 z "},"$":{"ha":700,"x_min":0,"x_max":0,"o":"m 604 899 b 399 911 538 914 468 919 b 399 913 399 911 399 911 b 404 1006 394 946 400 982 b 332 1115 413 1053 382 1104 b 208 1044 283 1126 218 1100 b 206 856 196 981 196 921 b 28 646 118 813 32 747 b 307 401 22 496 181 443 b 185 344 501 338 214 344 b 85 243 132 346 82 299 b 185 143 86 189 128 144 b 249 144 206 143 228 143 b 239 28 244 106 242 67 b 339 -72 233 -25 288 -75 b 439 28 396 -71 433 -29 b 453 176 443 78 449 128 b 635 365 536 207 628 269 b 382 586 639 501 485 556 b 275 675 271 617 244 650 b 551 706 331 724 488 724 b 675 775 601 693 661 721 b 604 899 686 826 658 886 z "},"%":{"ha":751,"x_min":0,"x_max":0,"o":"m 224 828 b 122 928 221 882 179 928 b 22 828 69 928 19 882 b 122 726 24 772 65 726 b 224 828 175 726 225 772 z m 625 342 b 524 240 572 342 521 296 b 625 140 528 186 568 140 b 725 240 678 140 728 186 b 625 342 722 296 681 342 z m 631 935 b 493 899 579 961 524 946 b 121 161 306 626 233 472 b 190 38 103 111 140 47 b 314 107 247 25 296 54 b 667 797 410 378 504 565 b 631 935 696 840 675 911 z "},"&":{"ha":958,"x_min":0,"x_max":0,"o":"m 906 185 b 779 279 864 215 821 247 b 822 456 807 335 822 394 b 629 456 818 578 633 571 b 622 404 628 444 631 413 b 486 517 578 444 531 479 b 614 621 529 551 575 583 b 704 774 657 663 696 717 b 256 969 753 1018 425 1083 b 140 810 197 931 154 876 b 210 535 121 708 154 613 b 90 414 167 497 125 458 b 38 117 24 331 -4 215 b 668 129 147 -149 525 -18 b 769 53 701 106 736 79 b 838 28 789 39 810 28 b 906 53 861 28 890 38 b 906 185 938 86 949 153 z m 485 757 b 358 654 446 715 379 671 b 332 771 333 692 321 735 b 396 835 340 800 365 822 b 485 757 474 865 558 831 z m 288 154 b 240 300 218 157 175 199 b 339 397 265 338 304 367 b 518 247 397 343 460 297 b 288 154 449 193 376 150 z "},"'":{"ha":201,"x_min":0,"x_max":0,"o":"m 140 1108 b 96 1126 129 1119 110 1128 b 32 1063 64 1126 28 1099 b 36 943 36 1024 38 983 b 100 879 36 908 67 876 b 164 943 135 881 164 907 b 160 1063 165 983 164 1024 b 140 1108 157 1081 154 1096 z "},"(":{"ha":710,"x_min":0,"x_max":0,"o":"m 592 165 b 286 678 294 188 151 442 b 621 936 357 804 489 900 b 544 1099 731 986 669 1140 b 44 351 206 1008 -43 653 b 578 -28 113 121 304 -24 b 592 165 732 -17 699 161 z "},")":{"ha":710,"x_min":0,"x_max":0,"o":"m 118 165 b 132 -28 11 161 -22 -17 b 665 351 406 -24 597 121 b 165 1099 753 653 504 1008 b 89 936 40 1140 -21 986 b 424 678 221 900 353 804 b 118 165 558 442 415 188 z "},"*":{"ha":371,"x_min":0,"x_max":0,"o":"m 342 904 b 268 924 325 929 296 936 b 249 913 261 919 256 915 b 249 957 249 928 249 942 b 194 1011 247 985 225 1011 b 142 957 167 1010 140 988 b 142 901 142 939 142 919 b 140 901 142 901 142 901 b 88 915 124 907 106 911 b 22 879 61 925 29 907 b 60 813 15 850 31 822 b 88 803 68 811 81 803 b 53 768 76 792 64 781 b 53 692 33 747 31 711 b 129 692 74 672 108 669 b 192 751 153 721 172 738 b 253 694 214 736 235 713 b 329 694 274 675 310 672 b 329 769 349 715 351 750 b 285 811 314 783 300 797 b 322 831 297 817 310 825 b 342 904 347 843 357 881 z "},"+":{"ha":788,"x_min":0,"x_max":0,"o":"m 650 597 b 521 594 607 596 564 596 b 533 711 524 635 528 672 b 433 813 539 765 481 815 b 333 711 372 811 339 767 b 318 590 328 671 324 632 b 140 588 260 590 200 589 b 40 486 88 586 38 542 b 140 386 43 433 85 385 b 304 389 196 388 250 389 b 299 224 301 335 299 279 b 399 124 297 171 344 121 b 500 224 453 125 497 167 b 506 393 500 281 503 338 b 650 396 554 394 601 394 b 750 497 703 397 753 442 b 650 597 747 550 706 599 z "},",":{"ha":326,"x_min":0,"x_max":0,"o":"m 175 303 b 75 203 121 300 74 258 b 44 19 75 136 64 76 b 114 -104 29 -31 64 -93 b 238 -33 171 -117 221 -87 b 275 203 264 42 275 122 b 175 303 274 256 229 306 z "},"-":{"ha":807,"x_min":0,"x_max":0,"o":"m 658 569 b 143 551 488 557 315 551 b 43 451 90 550 40 506 b 143 351 44 397 86 351 b 658 368 315 351 488 357 b 758 468 711 371 761 411 b 658 569 757 521 715 572 z "},".":{"ha":304,"x_min":0,"x_max":0,"o":"m 157 -1 b 257 99 208 -1 258 44 b 157 199 254 153 213 199 b 56 99 103 199 53 153 b 157 -1 57 44 99 -1 z "},"/":{"ha":729,"x_min":0,"x_max":0,"o":"m 647 1100 b 510 1064 596 1126 540 1111 b 36 161 322 792 149 472 b 106 38 18 111 56 47 b 229 107 163 25 211 54 b 683 963 325 378 521 731 b 647 1100 713 1006 692 1076 z "},";":{"ha":317,"x_min":0,"x_max":0,"o":"m 168 424 b 268 524 219 424 269 469 b 168 624 265 578 224 624 b 67 524 114 624 64 578 b 168 424 68 469 110 424 z m 175 303 b 75 203 121 300 74 258 b 44 19 75 136 64 76 b 114 -104 29 -31 64 -93 b 238 -33 171 -117 221 -87 b 275 203 264 42 275 122 b 175 303 274 256 229 306 z "},"<":{"ha":800,"x_min":0,"x_max":0,"o":"m 249 721 b 694 550 364 633 569 569 b 726 660 775 538 794 633 b 360 858 601 707 467 778 b 249 721 263 931 185 769 z m 83 376 b 626 378 267 318 482 344 b 690 450 663 386 694 419 b 614 504 685 489 661 511 b 132 561 451 478 294 515 b 83 376 24 592 -19 408 z m 690 297 b 239 204 561 224 392 215 b 182 86 185 200 167 136 b 425 53 211 -7 361 36 b 744 194 540 81 644 132 b 690 297 818 240 763 340 z "},"=":{"ha":1157,"x_min":0,"x_max":0,"o":"m 665 722 b 164 707 497 718 332 713 b 64 607 111 706 60 663 b 164 507 67 554 108 506 b 665 522 332 513 497 518 b 765 622 718 525 768 568 b 665 722 764 675 721 726 z m 646 424 b 142 411 478 431 310 426 b 42 311 90 407 40 369 b 142 211 44 261 86 207 b 646 222 310 225 478 229 b 746 322 697 221 747 269 b 646 424 743 379 701 421 z "},">":{"ha":800,"x_min":0,"x_max":0,"o":"m 550 721 b 439 858 614 769 536 931 b 72 660 332 778 197 707 b 104 550 4 633 24 538 b 550 721 229 569 435 633 z m 715 376 b 667 561 818 408 775 592 b 185 504 504 515 347 478 b 108 450 138 511 114 489 b 172 378 104 419 136 386 b 715 376 317 344 532 318 z m 108 297 b 54 194 36 340 -19 240 b 374 53 154 132 258 81 b 617 86 438 36 588 -7 b 560 204 632 136 614 200 b 108 297 407 215 238 224 z "},"?":{"ha":749,"x_min":0,"x_max":0,"o":"m 499 1068 b 181 993 382 1089 274 1060 b 26 710 88 925 29 819 b 131 618 26 661 76 615 b 232 710 185 621 232 658 b 300 849 232 769 261 814 b 449 900 329 874 396 903 b 500 760 531 897 538 813 b 403 657 471 719 433 690 b 224 382 325 576 260 486 b 294 268 207 336 242 279 b 421 332 351 257 406 283 b 574 553 454 418 508 490 b 729 846 654 633 740 729 b 499 1068 718 960 622 1046 z m 0 0 b 0 0 0 0 0 0 z m 301 183 b 199 92 246 183 196 142 b 301 -1 201 42 243 -1 b 404 92 354 -1 406 42 b 301 183 401 142 358 183 z "},"_":{"ha":925,"x_min":0,"x_max":0,"o":"m 785 236 b 136 226 568 228 353 225 b 36 126 83 228 33 181 b 136 26 38 72 79 28 b 785 36 353 24 568 28 b 885 136 838 38 888 81 b 785 236 882 188 840 238 z "},"~":{"ha":1025,"x_min":0,"x_max":0,"o":"m 950 532 b 811 497 901 557 838 546 b 625 436 782 394 679 353 b 582 522 607 463 597 497 b 346 646 525 625 436 664 b 42 388 218 618 101 483 b 78 250 14 342 31 275 b 215 286 126 224 185 239 b 369 446 242 328 313 450 b 436 386 394 443 417 418 b 857 242 542 221 675 117 b 985 394 913 279 956 333 b 950 532 1007 443 999 507 z "},"^":{"ha":615,"x_min":0,"x_max":0,"o":"m 346 1169 b 132 1043 249 1186 175 1125 b 39 854 100 981 69 918 b 75 717 15 807 24 744 b 213 753 121 693 188 703 b 310 953 247 825 281 888 b 392 774 344 893 375 839 b 514 704 407 724 463 686 b 585 828 567 721 601 774 b 346 1169 551 939 468 1150 z "},"]":{"ha":565,"x_min":0,"x_max":0,"o":"m 171 88 b 129 89 157 88 143 89 b 24 3 74 92 21 49 b 125 -83 24 -44 65 -81 b 465 36 254 -86 388 -75 b 528 317 525 121 525 222 b 518 810 536 486 535 650 b 331 1107 507 957 488 1069 b 138 1110 276 1119 194 1115 b 153 938 -31 1092 1 919 b 219 943 164 938 192 939 b 315 731 310 957 311 806 b 319 658 317 707 318 682 b 319 282 324 526 326 403 b 171 88 308 151 307 88 z "},"}":{"ha":697,"x_min":0,"x_max":0,"o":"m 76 935 b 118 925 88 931 103 926 b 300 846 185 922 271 899 b 365 515 354 751 242 581 b 301 390 321 489 306 440 b 297 208 294 318 317 267 b 100 75 267 114 181 90 b 22 -24 44 71 7 18 b 146 -90 36 -74 88 -94 b 453 76 272 -79 390 -10 b 507 328 515 158 519 239 b 615 431 507 401 610 429 b 624 572 696 451 693 543 b 506 731 556 596 493 610 b 392 1022 519 843 494 951 b 110 1088 311 1076 203 1096 b 76 935 18 1088 6 956 z "},"|":{"ha":304,"x_min":0,"x_max":0,"o":"m 249 1072 b 139 994 194 1078 150 1046 b 39 60 69 697 29 365 b 144 -22 42 11 97 -31 b 231 81 200 -12 232 29 b 329 968 219 344 267 714 b 249 1072 340 1015 296 1068 z "},"\\":{"ha":729,"x_min":0,"x_max":0,"o":"m 83 1100 b 47 963 39 1076 18 1006 b 501 107 210 731 406 378 b 625 38 519 54 568 25 b 694 161 675 47 713 111 b 221 1064 582 472 408 792 b 83 1100 190 1111 135 1126 z "},"[":{"ha":565,"x_min":0,"x_max":0,"o":"m 397 946 b 439 944 411 946 425 944 b 544 1031 494 942 547 985 b 443 1117 544 1078 503 1114 b 103 997 314 1119 181 1108 b 40 717 43 913 43 811 b 50 224 32 547 33 383 b 238 -74 61 76 81 -36 b 431 -76 292 -86 374 -82 b 415 96 599 -58 567 114 b 349 90 404 96 376 94 b 253 303 258 76 257 228 b 249 375 251 326 250 351 b 249 751 244 507 242 631 b 397 946 260 882 261 946 z "},"{":{"ha":697,"x_min":0,"x_max":0,"o":"m 621 67 b 579 76 610 71 594 75 b 397 156 513 79 426 103 b 332 486 343 250 456 421 b 396 611 376 513 392 561 b 400 793 403 683 381 735 b 597 926 431 888 517 911 b 675 1025 653 931 690 983 b 551 1092 661 1075 610 1096 b 244 925 425 1081 307 1011 b 190 674 182 843 178 763 b 82 571 190 600 88 572 b 74 429 1 550 4 458 b 192 271 142 406 204 392 b 306 -21 178 158 203 50 b 588 -86 386 -75 494 -94 b 621 67 679 -86 692 46 z "},"V":{"ha":797,"x_min":0,"x_max":0,"o":"m 722 1151 b 599 1081 668 1164 614 1136 b 456 586 550 915 503 750 b 393 369 435 514 414 442 b 201 985 319 572 256 776 b 78 1056 189 1036 129 1072 b 7 932 25 1038 -7 986 b 269 126 76 658 165 390 b 546 143 336 -37 508 -7 b 640 499 572 242 618 419 b 793 1028 692 674 742 851 b 722 1151 808 1078 775 1140 z "},"s":{"ha":582,"x_min":0,"x_max":0,"o":"m 88 106 b 538 247 263 65 461 82 b 547 419 563 301 569 363 b 296 663 508 524 369 610 b 471 864 129 760 315 851 b 571 964 522 868 572 910 b 471 1065 568 1018 526 1064 b 40 658 265 1071 -44 907 b 282 422 74 560 197 485 b 332 310 315 397 368 356 b 140 299 289 261 193 285 b 17 229 90 311 31 283 b 88 106 6 179 33 118 z "},"o":{"ha":840,"x_min":0,"x_max":0,"o":"m 43 561 b 199 104 -15 394 42 194 b 682 176 357 14 554 54 b 800 624 797 289 849 468 b 618 854 771 718 704 801 b 43 561 365 1011 118 786 z m -26 0 b -26 0 -26 0 -26 0 z m 547 325 b 264 324 468 242 331 233 b 238 501 228 369 214 432 b 361 669 260 569 303 628 b 610 467 493 771 633 615 b 547 325 601 410 583 361 z "},"n":{"ha":935,"x_min":0,"x_max":0,"o":"m 194 29 b 265 153 251 49 275 97 b 219 532 242 283 231 407 b 638 176 351 397 492 279 b 849 175 701 132 788 114 b 900 349 896 221 897 288 b 910 518 904 407 907 463 b 924 901 915 646 922 774 b 822 1001 925 953 878 1003 b 724 901 768 999 724 957 b 713 586 721 796 718 690 b 701 376 710 508 706 443 b 396 639 592 467 490 549 b 136 840 304 731 232 800 b 8 743 75 864 7 803 b 71 100 14 526 36 313 b 194 29 81 49 147 14 z "},"N":{"ha":886,"x_min":0,"x_max":0,"o":"m 772 1069 b 671 969 715 1067 674 1025 b 639 321 660 753 650 536 b 178 957 469 524 321 735 b 64 1003 154 994 107 1018 b -10 906 22 990 -12 951 b 60 114 7 642 28 376 b 89 42 63 86 68 63 b 160 13 107 25 135 11 b 261 114 210 15 268 58 b 219 538 246 254 231 396 b 467 217 299 429 381 321 b 590 68 507 167 547 117 b 700 14 618 36 656 13 b 814 89 749 15 792 46 b 842 301 844 153 839 232 b 850 506 844 369 847 438 b 872 969 858 660 865 814 b 772 1069 875 1022 824 1072 z "},"M":{"ha":1054,"x_min":0,"x_max":0,"o":"m 1019 971 b 908 978 989 994 942 1000 b 617 686 789 903 707 792 b 551 613 596 663 574 636 b 533 594 546 607 539 600 b 529 599 532 596 532 597 b 467 706 510 633 489 671 b 338 925 424 778 381 853 b 276 1019 319 957 300 988 b 114 1111 236 1072 190 1125 b 21 846 -3 1085 19 935 b 38 600 24 764 28 682 b 135 35 54 410 88 221 b 258 -35 147 -15 207 -53 b 329 89 311 -18 343 35 b 279 318 310 164 292 242 b 231 710 257 450 236 578 b 381 454 281 625 331 539 b 551 365 418 392 475 346 b 681 456 603 376 643 419 b 821 617 731 506 775 561 b 788 104 801 446 792 275 b 889 3 788 51 835 1 b 990 104 944 6 989 46 b 1010 493 992 233 997 364 b 1057 864 1021 622 1038 743 b 1019 971 1063 906 1056 943 z m -42 0 b -42 0 -42 0 -42 0 z "},"L":{"ha":543,"x_min":0,"x_max":0,"o":"m 396 226 b 231 203 340 214 286 206 b 231 294 229 233 231 265 b 231 764 231 451 231 607 b 229 1031 231 853 229 942 b 129 1132 229 1083 183 1135 b 29 1031 75 1129 29 1089 b 29 514 29 858 29 686 b 29 254 29 428 29 342 b 35 124 29 210 26 167 b 142 7 46 67 86 22 b 288 7 188 -7 242 3 b 451 32 342 13 396 19 b 521 156 503 42 536 106 b 396 226 503 210 453 239 z "},"l":{"ha":476,"x_min":0,"x_max":0,"o":"m 378 185 b 260 188 344 189 292 188 b 224 283 229 188 222 231 b 299 814 228 493 258 621 b 229 938 314 865 282 926 b 106 867 176 950 119 921 b 29 215 47 650 17 428 b 139 14 35 136 63 51 b 263 -14 178 -4 219 -14 b 368 -10 294 -14 333 -15 b 378 185 492 10 488 174 z "},"i":{"ha":257,"x_min":0,"x_max":0,"o":"m 221 178 b 236 672 226 342 231 507 b 136 772 238 725 189 775 b 36 672 81 771 38 729 b 19 178 32 507 25 342 b 121 76 18 125 67 74 b 221 178 176 81 219 121 z m 143 865 b 243 965 196 865 246 911 b 143 1067 242 1021 200 1067 b 43 965 92 1067 42 1021 b 143 865 46 911 88 865 z "},"j":{"ha":640,"x_min":0,"x_max":0,"o":"m 88 47 b 529 125 253 -3 429 -31 b 590 294 563 175 579 236 b 617 806 621 471 628 639 b 517 906 614 857 574 908 b 417 806 465 903 414 861 b 394 332 424 686 421 468 b 140 240 361 169 264 203 b 18 171 92 256 31 222 b 88 47 6 115 35 63 z "},"I":{"ha":269,"x_min":0,"x_max":0,"o":"m 233 958 b 132 1060 233 1013 186 1063 b 32 958 76 1057 33 1015 b 36 126 26 682 28 404 b 138 25 38 74 82 22 b 239 126 192 28 240 69 b 233 958 229 404 228 682 z "},"J":{"ha":771,"x_min":0,"x_max":0,"o":"m 689 982 b 565 1053 678 1035 614 1069 b 494 929 508 1036 483 985 b 544 449 522 768 558 610 b 224 436 518 146 256 126 b 122 538 218 490 181 540 b 22 436 72 536 15 493 b 344 21 44 239 143 56 b 697 232 500 -4 638 96 b 689 982 788 436 726 782 z "},"K":{"ha":844,"x_min":0,"x_max":0,"o":"m 771 210 b 354 410 632 276 493 343 b 393 443 368 419 381 432 b 578 610 454 500 515 554 b 783 797 647 674 714 736 b 783 940 824 833 822 906 b 640 940 743 979 683 979 b 240 578 508 819 374 699 b 239 576 240 578 239 578 b 242 1021 239 725 240 872 b 140 1122 242 1074 194 1124 b 40 1021 86 1119 40 1078 b 43 40 36 694 38 367 b 143 -61 43 -12 89 -62 b 244 40 199 -58 246 -17 b 242 240 244 107 242 174 b 264 229 250 235 257 232 b 386 171 304 210 344 190 b 667 35 481 126 575 81 b 806 72 717 13 779 21 b 771 210 829 117 821 185 z "},"H":{"ha":833,"x_min":0,"x_max":0,"o":"m 697 1153 b 597 1053 643 1150 597 1108 b 597 576 597 893 597 736 b 226 539 474 564 351 553 b 213 979 219 686 214 832 b 110 1079 211 1031 167 1082 b 10 979 57 1076 8 1035 b 53 135 14 697 29 415 b 153 35 57 83 96 32 b 254 135 204 36 260 79 b 239 339 249 203 243 271 b 597 374 358 350 478 363 b 597 114 597 289 597 201 b 697 13 597 61 643 11 b 800 114 753 15 800 57 b 800 1053 800 428 800 740 b 697 1153 800 1104 753 1156 z "},"G":{"ha":967,"x_min":0,"x_max":0,"o":"m 849 619 b 653 647 790 654 718 647 b 468 647 592 647 529 647 b 365 547 414 647 364 601 b 468 444 368 492 410 444 b 733 444 556 444 644 446 b 668 292 729 386 704 333 b 300 299 564 185 393 194 b 235 450 263 342 243 394 b 375 828 213 592 271 739 b 690 901 461 900 588 949 b 828 938 735 875 803 889 b 792 1075 854 986 840 1047 b 476 1103 696 1132 579 1131 b 221 960 381 1076 293 1026 b 39 399 67 818 3 603 b 447 7 78 186 242 32 b 906 292 647 -18 831 108 b 849 619 949 394 958 553 z m 0 0 b 0 0 0 0 0 0 z "},"g":{"ha":803,"x_min":0,"x_max":0,"o":"m 756 219 b 740 497 789 306 792 417 b 410 572 672 601 514 618 b 347 486 372 556 344 524 b 449 385 350 426 392 389 b 578 344 504 379 578 425 b 561 275 576 319 571 294 b 271 283 490 133 338 165 b 476 744 163 469 267 714 b 604 728 528 751 575 746 b 682 717 629 713 653 710 b 742 764 704 724 731 742 b 704 900 764 807 756 878 b 239 863 553 968 372 953 b 22 433 97 767 17 604 b 275 15 28 267 117 88 b 569 14 371 -29 472 -29 b 756 219 658 53 721 131 z "},"f":{"ha":672,"x_min":0,"x_max":0,"o":"m 632 964 b 560 994 610 985 589 990 b 290 1011 471 1006 381 1011 b 144 993 242 1011 190 1011 b 39 874 92 971 57 929 b 25 750 26 833 26 789 b 71 17 17 483 38 250 b 117 -42 74 -6 97 -32 b 194 -51 139 -56 169 -61 b 263 71 250 -35 272 15 b 239 296 257 150 244 222 b 238 307 238 300 238 304 b 433 306 303 307 369 307 b 535 406 486 306 538 353 b 433 506 533 460 492 506 b 226 507 365 506 296 507 b 231 810 225 635 231 722 b 560 794 344 813 453 807 b 632 822 585 792 615 807 b 660 894 649 842 661 868 b 632 964 658 919 651 947 z "},"F":{"ha":708,"x_min":0,"x_max":0,"o":"m 629 1114 b 314 1161 525 1139 421 1153 b 154 1160 263 1165 206 1172 b 29 1035 92 1143 49 1094 b 18 899 17 990 18 943 b 21 747 18 847 19 797 b 38 438 25 644 29 540 b 72 93 46 322 57 207 b 101 21 75 65 81 42 b 172 -8 118 4 147 -10 b 274 93 221 -6 281 38 b 240 424 260 203 250 314 b 413 424 299 424 354 424 b 514 525 465 424 515 469 b 413 626 511 581 469 626 b 229 626 351 626 289 626 b 219 963 217 738 219 851 b 574 918 344 960 461 949 b 700 989 626 907 686 935 b 629 1114 711 1042 683 1100 z "},"E":{"ha":690,"x_min":0,"x_max":0,"o":"m 231 971 b 268 972 243 971 257 972 b 368 974 301 974 335 974 b 572 967 435 974 504 972 b 674 1069 626 965 676 1017 b 572 1169 671 1126 629 1167 b 368 1175 504 1174 435 1175 b 167 1163 303 1175 229 1182 b 31 1001 93 1140 43 1076 b 29 817 21 940 26 879 b 46 419 36 683 40 553 b 56 235 49 358 49 296 b 124 63 64 172 78 110 b 344 10 183 1 265 3 b 589 46 426 18 508 31 b 658 171 640 57 675 122 b 535 242 640 226 590 251 b 353 210 474 228 413 221 b 254 281 299 201 254 204 b 242 561 247 378 246 469 b 361 561 282 561 322 561 b 463 663 414 561 465 607 b 361 764 458 717 418 764 b 233 764 319 764 276 764 b 231 971 231 836 231 903 z "},"e":{"ha":694,"x_min":0,"x_max":0,"o":"m 51 240 b 118 89 60 186 79 131 b 515 63 224 -22 388 36 b 586 186 567 72 601 136 b 463 256 567 240 517 268 b 317 226 414 244 365 235 b 301 224 317 226 303 224 b 274 224 293 224 283 224 b 274 224 274 224 274 224 b 267 225 271 224 268 225 b 267 226 267 225 267 226 b 264 228 265 226 265 228 b 258 235 261 231 260 232 b 246 285 254 250 249 268 b 246 286 246 285 246 285 b 244 289 246 286 244 288 b 244 296 244 292 244 293 b 244 297 244 296 244 296 b 244 296 244 296 244 296 b 242 329 243 308 242 318 b 238 375 240 343 239 360 b 364 382 279 379 322 381 b 464 483 415 385 467 428 b 364 583 461 536 419 586 b 232 575 319 582 276 579 b 238 707 232 619 235 664 b 244 781 240 731 242 757 b 303 829 251 846 244 839 b 383 814 331 824 357 819 b 554 781 442 803 497 792 b 678 850 604 771 665 796 b 607 975 688 900 661 963 b 436 1007 550 985 494 996 b 264 1038 379 1019 322 1033 b 86 957 193 1044 124 1018 b 44 772 51 904 50 832 b 33 424 31 656 28 540 b 51 240 36 363 43 303 z m 265 226 b 265 226 265 226 265 226 b 265 226 256 228 258 228 z m 265 225 b 265 225 265 225 265 225 b 265 225 268 221 271 217 z m 271 224 b 271 224 271 224 271 224 b 271 224 271 224 271 224 b 271 224 271 224 271 224 z m 279 222 b 276 224 281 222 278 222 b 279 222 278 222 279 222 z m 271 224 b 271 224 271 224 271 224 b 267 225 269 224 268 225 b 271 224 269 225 271 224 z m 260 231 b 264 229 260 231 261 229 b 260 231 261 231 260 231 z m 246 286 b 244 296 247 281 249 286 b 244 296 244 296 244 296 b 246 286 244 293 246 289 z "},"d":{"ha":754,"x_min":0,"x_max":0,"o":"m 31 782 b 24 204 39 590 36 397 b 210 78 11 78 138 64 b 497 183 310 99 410 131 b 706 426 593 242 665 322 b 693 725 743 525 739 633 b 126 947 594 928 313 947 b 31 782 47 944 -4 847 z m 228 289 b 232 744 236 442 238 593 b 478 678 292 749 410 728 b 526 525 529 639 539 581 b 228 289 492 383 354 317 z "},"D":{"ha":811,"x_min":0,"x_max":0,"o":"m 507 1129 b 90 1190 375 1188 232 1199 b -14 1000 -10 1185 -21 1076 b 78 49 14 715 51 333 b 244 -49 100 -50 125 -71 b 750 447 483 21 674 214 b 507 1129 833 697 765 1014 z m 268 176 b 188 990 242 447 215 719 b 444 931 281 996 372 976 b 268 176 732 743 528 271 z "},"C":{"ha":849,"x_min":0,"x_max":0,"o":"m 672 290 b 665 286 671 289 668 288 b 654 281 661 285 658 282 b 547 258 619 268 583 260 b 332 331 463 253 390 282 b 231 508 276 379 243 442 b 278 713 218 581 239 654 b 489 835 326 786 406 835 b 614 796 533 833 578 818 b 675 774 632 782 650 774 b 746 804 699 774 728 785 b 746 947 779 840 790 911 b 558 1031 690 989 629 1021 b 349 1014 489 1042 417 1038 b 69 764 229 972 125 882 b 56 385 15 644 6 508 b 318 101 104 261 194 154 b 774 115 465 38 631 42 b 811 253 821 139 839 210 b 672 290 779 301 724 315 z m 665 286 b 653 281 660 282 656 281 b 665 286 657 282 660 285 z "},"c":{"ha":856,"x_min":0,"x_max":0,"o":"m 826 229 b 703 299 811 276 756 318 b 339 264 578 251 447 221 b 353 654 135 347 229 557 b 510 724 400 692 456 718 b 661 681 565 731 624 718 b 732 651 675 663 710 651 b 803 681 757 651 786 663 b 832 753 821 700 833 725 b 803 822 831 779 821 801 b 290 851 674 971 449 943 b 263 79 3 681 -112 208 b 757 106 415 26 608 51 b 826 229 806 122 844 175 z "},"b":{"ha":771,"x_min":0,"x_max":0,"o":"m 585 557 b 689 706 631 597 667 647 b 675 954 719 786 715 881 b 439 1096 626 1042 532 1082 b 115 1056 328 1111 218 1101 b 35 957 69 1046 35 1007 b 35 114 35 676 35 394 b 136 13 35 61 82 11 b 222 63 172 15 204 33 b 619 158 360 54 503 82 b 736 413 701 214 765 308 b 585 557 715 485 651 526 z m 365 661 b 236 624 324 644 281 632 b 236 888 236 713 236 799 b 390 900 275 896 336 906 b 365 661 596 882 476 715 z m 236 264 b 236 422 236 317 236 369 b 501 365 317 419 447 419 b 236 264 556 311 292 239 z "},"B":{"ha":822,"x_min":0,"x_max":0,"o":"m 0 0 b 0 0 0 0 0 0 z m 568 457 b 542 467 560 461 550 464 b 585 503 557 479 569 490 b 756 728 657 565 722 636 b 699 1021 793 828 774 943 b 446 1132 633 1088 536 1118 b 96 1115 329 1151 211 1147 b 75 1106 89 1114 83 1111 b 1 1010 35 1094 -3 1057 b 86 -3 29 672 58 336 b 186 -103 90 -54 129 -106 b 263 -67 214 -101 243 -89 b 314 -83 278 -78 296 -82 b 751 88 467 -87 667 -54 b 751 328 796 161 800 257 b 568 457 707 393 640 432 z m 250 500 b 247 497 250 500 249 499 b 210 935 235 643 221 789 b 450 932 292 951 376 949 b 518 725 593 900 578 806 b 250 500 451 636 340 554 z m 397 113 b 278 111 357 110 317 113 b 261 322 272 182 267 251 b 413 310 315 322 365 319 b 397 113 621 261 619 144 z "},"A":{"ha":867,"x_min":0,"x_max":0,"o":"m 807 475 b 764 707 794 553 779 631 b 519 1093 738 849 693 1076 b 310 946 425 1101 356 1014 b 215 753 271 885 243 818 b 126 531 183 679 153 606 b -1 46 71 372 28 211 b 69 -78 -10 -6 14 -64 b 193 -7 119 -89 185 -62 b 233 182 206 57 218 119 b 646 194 343 186 526 190 b 647 183 646 192 647 186 l 647 181 b 669 -3 651 160 654 139 b 700 -75 672 -31 681 -54 b 772 -104 717 -90 747 -104 b 872 -3 822 -101 878 -58 b 807 475 854 157 833 317 z m 290 386 b 292 390 290 388 292 389 b 460 810 326 501 392 694 b 529 813 510 890 507 892 b 567 671 536 786 547 744 b 617 394 610 436 613 415 b 290 386 607 397 596 399 z "},"a":{"ha":731,"x_min":0,"x_max":0,"o":"m 476 824 b 358 972 449 882 421 946 b 236 964 317 989 274 986 b 168 869 200 943 182 907 b 82 532 122 763 104 646 b 8 140 56 403 31 272 b 78 17 -1 89 22 31 b 203 88 128 6 193 32 b 215 158 206 111 211 135 b 468 231 299 183 383 207 b 496 243 478 233 486 239 b 531 128 507 204 519 167 b 654 57 546 78 601 40 b 725 181 707 75 740 128 b 476 824 661 403 576 618 z m 414 426 b 258 382 363 411 310 396 b 263 406 260 389 261 397 b 319 683 281 499 296 593 b 429 429 363 597 397 514 b 414 426 425 429 418 428 z "},"÷":{"ha":767,"x_min":0,"x_max":0,"o":"m 625 558 b 129 557 460 574 294 574 b 29 457 76 551 26 514 b 129 356 31 406 74 350 b 625 357 294 374 460 374 b 725 458 678 353 728 408 b 625 558 722 517 681 553 z m 281 703 b 381 603 283 649 325 603 b 481 703 433 603 483 649 b 381 803 478 757 436 803 b 281 703 329 803 278 757 z m 374 333 b 274 233 322 333 272 288 b 374 133 276 179 318 133 b 474 233 426 133 476 179 b 374 333 472 288 429 333 z "},"×":{"ha":749,"x_min":0,"x_max":0,"o":"m 683 703 b 542 703 639 742 585 738 b 368 564 485 656 426 610 b 185 689 310 607 249 650 b 49 653 142 717 74 700 b 85 517 24 604 38 547 b 206 435 126 489 167 463 b 63 324 158 397 111 360 b 33 251 43 308 33 275 b 63 181 33 226 44 199 b 133 151 82 164 106 151 b 206 181 163 153 182 164 b 368 310 260 224 314 267 b 378 301 371 307 374 304 b 475 215 410 275 443 246 b 617 215 514 181 579 175 b 617 357 653 254 658 321 b 528 436 588 385 558 411 b 683 561 581 478 632 519 b 683 703 724 594 719 668 z "},"‰":{"ha":1069,"x_min":0,"x_max":0,"o":"m 224 828 b 122 928 221 882 179 928 b 22 828 69 928 19 882 b 122 726 24 772 65 726 b 224 828 175 726 225 772 z m 625 342 b 524 240 572 342 521 296 b 625 140 528 186 568 140 b 725 240 678 140 728 186 b 625 342 722 296 681 342 z m 631 935 b 493 899 579 961 524 946 b 121 161 306 626 233 472 b 190 38 103 111 140 47 b 314 107 247 25 296 54 b 667 797 410 378 504 565 b 631 935 696 840 675 911 z m 903 378 b 767 240 832 378 763 317 b 903 106 772 168 826 106 b 1039 240 975 106 1043 168 b 903 378 1035 317 979 378 z "},":":{"ha":317,"x_min":0,"x_max":0,"o":"m 168 424 b 268 524 219 424 269 469 b 168 624 265 578 224 624 b 67 524 114 624 64 578 b 168 424 68 469 110 424 z m 168 35 b 268 135 219 35 269 81 b 168 235 265 189 224 235 b 67 135 114 235 64 189 b 168 35 68 81 110 35 z "},"±":{"ha":788,"x_min":0,"x_max":0,"o":"m 650 715 b 521 713 607 714 564 714 b 533 829 524 753 528 790 b 433 931 539 883 481 933 b 333 829 372 929 339 885 b 318 708 328 789 324 750 b 140 706 260 708 200 707 b 40 604 88 704 38 660 b 140 504 43 551 85 503 b 304 507 196 506 250 507 b 299 342 301 453 299 397 b 399 242 297 289 344 239 b 500 342 453 243 497 285 b 506 511 500 399 503 456 b 650 514 554 513 601 513 b 750 615 703 515 753 560 b 650 715 747 668 706 717 z m 658 207 b 143 189 488 194 315 189 b 43 89 90 188 40 143 b 143 -11 44 35 86 -11 b 658 6 315 -11 488 -6 b 758 106 711 8 761 49 b 658 207 757 158 715 210 z "},"£":{"ha":1050,"x_min":0,"x_max":0,"o":"m 969 268 b 838 236 928 290 860 285 b 594 243 811 156 640 228 b 442 272 542 261 493 271 b 443 385 444 311 444 347 b 613 381 500 386 556 383 b 711 475 664 376 713 426 b 613 569 707 531 668 568 b 436 575 554 574 496 575 b 492 717 444 621 463 672 b 756 769 553 811 672 853 b 779 718 769 754 779 738 b 878 629 786 671 822 626 b 974 724 925 631 979 671 b 797 972 964 829 899 928 b 464 954 686 1021 567 1011 b 265 699 365 897 299 803 b 242 564 251 654 243 610 b 106 546 197 560 150 553 b 39 429 54 539 22 475 b 157 363 54 376 103 356 b 249 375 189 371 219 371 b 249 375 249 375 249 375 b 140 171 251 260 225 238 b 235 11 61 113 151 -28 b 607 38 381 82 461 92 b 832 17 681 13 756 1 b 1006 139 903 29 975 74 b 969 268 1026 185 1021 243 z "},"€":{"ha":1124,"x_min":0,"x_max":0,"o":"m 1040 411 b 903 376 992 439 925 426 b 438 303 822 199 524 135 b 617 311 496 306 557 308 b 683 378 651 314 685 342 b 617 446 682 413 654 447 b 389 436 540 442 464 439 b 403 539 392 476 397 507 b 579 529 461 539 521 536 b 647 597 615 528 649 563 b 579 664 644 635 617 661 b 464 672 542 667 504 669 b 465 675 464 674 465 674 b 467 676 467 675 467 676 b 821 747 574 788 679 817 b 958 783 863 717 933 736 b 922 921 985 833 967 889 b 482 942 792 1010 619 1007 b 235 665 367 888 282 782 b 89 650 185 661 138 657 b 42 567 53 646 35 599 b 124 521 53 529 89 515 b 196 529 147 524 172 526 b 189 433 190 496 188 464 b 92 433 156 433 124 433 b 25 367 56 433 24 401 b 92 299 26 328 53 299 b 213 299 132 299 172 299 b 290 165 231 250 256 206 b 1076 274 508 -86 919 4 b 1040 411 1107 317 1088 386 z "},"¢":{"ha":810,"x_min":0,"x_max":0,"o":"m 757 715 b 526 818 689 769 611 804 b 526 833 528 822 526 826 b 515 926 522 865 519 894 b 486 997 513 954 507 978 b 415 1028 469 1017 440 1029 b 314 926 367 1025 300 982 b 331 810 322 893 324 860 b 179 743 275 797 222 774 b 57 603 128 706 81 663 b 43 424 32 544 29 482 b 276 188 71 306 167 224 b 332 172 296 181 314 178 b 339 51 328 132 332 93 b 463 -19 350 -1 414 -36 b 535 104 518 -1 544 49 b 535 179 533 126 533 161 b 668 217 579 188 625 200 b 738 340 718 233 756 286 b 615 410 722 390 667 429 b 425 368 553 381 486 368 b 479 625 86 368 243 658 b 615 574 529 619 606 581 b 686 543 638 557 657 543 b 757 574 711 543 742 556 b 757 715 790 610 801 681 z "},"¥":{"ha":853,"x_min":0,"x_max":0,"o":"m 664 958 b 426 678 571 876 499 776 b 363 754 406 704 383 731 b 210 940 313 817 260 878 b 68 940 176 981 101 978 b 68 799 28 897 32 842 l 238 593 b 281 536 250 575 265 556 b 207 535 257 536 232 535 b 117 463 160 533 113 503 b 207 392 118 425 157 390 b 319 393 244 392 282 393 l 319 329 b 188 322 275 328 231 325 b 96 251 140 319 94 293 b 188 179 99 215 136 176 b 319 186 232 182 275 185 b 321 132 319 168 321 150 b 422 31 322 81 367 29 b 522 132 476 33 524 76 b 521 189 522 151 521 169 b 647 188 563 189 606 189 b 738 258 693 186 739 221 b 647 332 736 300 697 329 b 519 333 604 333 561 333 l 519 399 l 664 401 b 756 474 713 404 758 435 b 664 546 754 511 715 549 b 575 543 633 544 604 543 b 806 815 651 643 733 749 b 806 958 844 851 843 922 b 664 958 764 999 706 994 z "},"™":{"ha":1014,"x_min":0,"x_max":0,"o":"m 336 1001 b 89 990 254 1003 172 1000 b 22 924 54 988 21 963 b 89 857 24 890 53 853 b 136 863 106 857 119 861 b 144 683 142 803 144 742 b 211 615 143 647 175 614 b 278 683 247 617 278 644 b 268 868 279 744 276 806 b 336 867 292 868 314 868 b 403 933 371 865 404 899 b 336 1001 401 971 375 1000 z m 929 1047 b 856 1033 906 1056 872 1054 b 782 951 833 1004 808 976 b 614 982 685 864 694 901 b 547 1014 594 1000 572 1015 b 472 918 493 1013 468 967 b 488 715 478 850 482 782 b 556 647 490 679 518 646 b 622 715 589 649 625 678 b 617 793 619 740 618 767 b 664 758 631 779 644 765 b 760 767 694 743 729 749 b 828 813 783 779 806 796 b 824 719 826 782 825 751 b 892 654 822 685 857 651 b 958 719 928 656 957 682 b 969 986 963 808 967 897 b 929 1047 971 1013 951 1038 z "},"":{"ha":1650,"x_min":0,"x_max":0,"o":"m 646 792 b 615 872 636 818 625 846 b 493 967 596 925 554 967 b 336 821 407 965 371 888 b 15 114 215 579 113 347 b 85 -8 -3 67 38 0 b 208 60 144 -24 189 8 b 243 143 219 89 235 115 b 660 174 392 146 514 163 b 707 44 676 131 692 88 b 831 -26 726 -6 776 -44 b 901 97 879 -11 921 44 b 646 792 817 328 731 560 z m 331 343 b 332 344 331 343 332 344 b 468 635 375 443 421 539 b 481 661 472 643 476 651 b 589 368 518 560 549 461 b 331 343 503 365 417 357 z m 1396 824 b 1278 972 1368 882 1340 946 b 1156 964 1236 989 1193 986 b 1088 869 1119 943 1101 907 b 1001 532 1042 763 1024 646 b 928 140 975 403 950 272 b 997 17 918 89 942 31 b 1122 88 1047 6 1113 32 b 1135 158 1125 111 1131 135 b 1388 231 1218 183 1303 207 b 1415 243 1397 233 1406 239 b 1450 128 1426 204 1439 167 b 1574 57 1465 78 1521 40 b 1644 181 1626 75 1660 128 b 1396 824 1581 403 1496 618 z m 1333 426 b 1178 382 1282 411 1229 396 b 1182 406 1179 389 1181 397 b 1239 683 1200 499 1215 593 b 1349 429 1282 597 1317 514 b 1333 426 1344 429 1338 428 z "},"":{"ha":1503,"x_min":0,"x_max":0,"o":"m 17 822 b 51 143 17 596 40 367 b 265 1 57 29 178 7 b 615 114 390 -4 519 35 b 696 354 683 171 728 267 b 586 478 675 410 635 450 b 707 599 633 511 676 550 b 674 876 764 688 751 804 b 435 976 610 939 522 964 b 82 958 317 993 197 988 b 17 822 18 943 0 874 z m 247 203 b 240 361 246 256 243 308 b 485 289 293 358 481 351 b 247 203 488 236 313 189 z m 233 560 b 231 560 232 560 232 560 b 219 782 226 635 224 708 b 518 711 292 800 511 783 b 233 560 525 638 310 575 z m 1317 557 b 1421 706 1363 597 1399 647 b 1407 954 1451 786 1447 881 b 1171 1096 1358 1042 1264 1082 b 847 1056 1060 1111 950 1101 b 767 957 801 1046 767 1007 b 767 114 767 676 767 394 b 868 13 767 61 814 11 b 954 63 904 15 936 33 b 1351 158 1092 54 1235 82 b 1468 413 1433 214 1497 308 b 1317 557 1447 485 1383 526 z m 1097 661 b 968 624 1056 644 1013 632 b 968 888 968 713 968 799 b 1122 900 1007 896 1068 906 b 1097 661 1328 882 1208 715 z m 968 264 b 968 422 968 317 968 369 b 1233 365 1049 419 1179 419 b 968 264 1288 311 1024 239 z "},"":{"ha":1288,"x_min":0,"x_max":0,"o":"m 700 196 b 1031 119 768 58 921 90 b 1208 188 1090 139 1149 161 b 1244 325 1256 208 1271 282 b 1106 361 1211 374 1158 383 b 990 314 1085 351 1038 329 b 842 411 857 274 878 317 b 974 426 886 417 931 421 b 1046 456 1003 429 1026 436 b 1075 528 1063 472 1076 501 b 974 628 1074 576 1031 633 b 833 610 928 622 881 617 b 926 696 850 683 856 696 b 1124 668 1001 700 1065 685 b 1247 738 1174 653 1235 686 b 1176 861 1260 793 1231 846 b 849 892 1072 894 957 906 b 642 679 732 876 658 788 b 651 347 624 569 629 456 b 700 196 661 294 676 243 z m 51 240 b 118 89 60 186 79 131 b 515 63 224 -22 388 36 b 586 186 567 72 601 136 b 463 256 567 240 517 268 b 317 226 414 244 365 235 b 301 224 317 226 303 224 b 274 224 293 224 283 224 b 274 224 274 224 274 224 b 267 225 271 224 268 225 b 267 226 267 225 267 226 b 264 228 265 226 265 228 b 258 235 261 231 260 232 b 246 285 254 250 249 268 b 246 286 246 285 246 285 b 244 289 246 286 244 288 b 244 296 244 292 244 293 b 244 297 244 296 244 296 b 244 296 244 296 244 296 b 242 329 243 308 242 318 b 238 375 240 343 239 360 b 364 382 279 379 322 381 b 464 483 415 385 467 428 b 364 583 461 536 419 586 b 232 575 319 582 276 579 b 238 707 232 619 235 664 b 244 781 240 731 242 757 b 303 829 251 846 244 839 b 383 814 331 824 357 819 b 554 781 442 803 497 792 b 678 850 604 771 665 796 b 607 975 688 900 661 963 b 436 1007 550 985 494 996 b 264 1038 379 1019 322 1033 b 86 957 193 1044 124 1018 b 44 772 51 904 50 832 b 33 424 31 656 28 540 b 51 240 36 363 43 303 z m 265 226 b 265 226 265 226 265 226 b 265 226 256 228 258 228 z m 265 225 b 265 225 265 225 265 225 b 265 225 268 221 271 217 z m 271 224 b 271 224 271 224 271 224 b 271 224 271 224 271 224 b 271 224 271 224 271 224 z m 279 222 b 276 224 281 222 278 222 b 279 222 278 222 279 222 z m 271 224 b 271 224 271 224 271 224 b 267 225 269 224 268 225 b 271 224 269 225 271 224 z m 260 231 b 264 229 260 231 261 229 b 260 231 261 231 260 231 z m 246 286 b 244 296 247 281 249 286 b 244 296 244 296 244 296 b 246 286 244 293 246 289 z "},"":{"ha":1344,"x_min":0,"x_max":0,"o":"m 774 14 b 875 113 826 15 876 57 b 867 310 872 179 869 244 b 1219 329 932 314 1154 325 b 1319 429 1271 333 1322 372 b 1219 531 1317 481 1275 535 b 864 510 1153 525 931 514 b 864 761 863 600 864 681 b 864 765 864 763 864 764 b 1204 688 979 746 1093 714 b 1328 758 1254 676 1315 704 b 1257 882 1339 808 1311 868 b 1006 939 1172 900 1089 918 b 743 944 922 957 821 993 b 664 669 649 886 664 764 b 665 408 663 582 664 496 b 674 113 667 311 669 211 b 774 14 675 61 718 11 z m 632 964 b 560 994 610 985 589 990 b 290 1011 471 1006 381 1011 b 144 993 242 1011 190 1011 b 39 874 92 971 57 929 b 25 750 26 833 26 789 b 71 17 17 483 38 250 b 117 -42 74 -6 97 -32 b 194 -51 139 -56 169 -61 b 263 71 250 -35 272 15 b 239 296 257 150 244 222 b 238 307 238 300 238 304 b 433 306 303 307 369 307 b 535 406 486 306 538 353 b 433 506 533 460 492 506 b 226 507 365 506 296 507 b 231 810 225 635 231 722 b 560 794 344 813 453 807 b 632 822 585 792 615 807 b 660 894 649 842 661 868 b 632 964 658 919 651 947 z "},"":{"ha":1561,"x_min":0,"x_max":0,"o":"m 1069 24 b 1053 229 1063 93 1057 160 b 1410 100 1169 174 1289 135 b 1533 171 1461 86 1522 118 b 1464 294 1546 224 1518 278 b 1186 388 1358 325 1265 347 b 1493 600 1267 463 1404 544 b 1529 738 1538 629 1558 692 b 1393 774 1500 782 1440 804 b 1040 529 1257 689 1146 613 b 1047 875 1039 644 1042 760 b 946 976 1049 928 999 978 b 846 875 889 974 849 932 b 871 24 832 592 840 307 b 899 -46 874 -3 879 -26 b 971 -76 917 -65 944 -78 b 1069 24 1019 -74 1076 -32 z m 731 347 b 356 474 604 385 479 426 b 521 589 411 511 465 551 b 736 742 593 640 664 692 b 771 881 779 771 803 832 b 633 915 744 922 679 949 b 244 642 504 824 374 733 b 249 1000 246 761 247 881 b 149 1100 250 1053 203 1103 b 49 1000 93 1099 49 1056 b 32 19 42 672 36 346 b 132 -82 31 -33 79 -83 b 235 19 189 -79 232 -37 b 239 301 236 113 238 207 b 404 242 293 279 349 261 b 676 153 494 208 585 179 b 801 224 726 138 789 171 b 731 347 814 276 785 332 z "},"":{"ha":1038,"x_min":0,"x_max":0,"o":"m 496 -11 b 567 114 546 4 582 63 b 443 183 549 165 496 197 b 294 167 392 171 342 165 b 210 210 246 167 210 165 b 290 890 210 446 243 674 b 219 1014 299 942 275 1000 b 96 943 171 1025 104 999 b 33 419 65 771 44 596 b 26 181 28 340 18 260 b 192 -24 36 78 93 -7 b 496 -11 293 -40 396 -36 z m 939 185 b 821 188 906 189 853 188 b 785 283 790 188 783 231 b 860 814 789 493 819 621 b 790 938 875 865 843 926 b 667 867 738 950 681 921 b 590 215 608 650 578 428 b 700 14 596 136 624 51 b 824 -14 739 -4 781 -14 b 929 -10 856 -14 894 -15 b 939 185 1053 10 1049 174 z "},"":{"ha":2165,"x_min":0,"x_max":0,"o":"m 997 967 b 886 976 967 992 919 997 b 514 594 735 878 639 721 b 511 599 513 596 513 597 b 260 1017 429 740 350 893 b 97 1107 218 1069 174 1122 b 6 846 -18 1082 3 933 b 22 600 7 764 14 682 b 118 40 39 411 72 224 b 242 -31 131 -11 192 -46 b 311 93 294 -14 325 39 b 213 710 261 304 225 504 b 363 456 263 625 313 540 b 532 367 399 394 457 349 b 660 457 582 379 624 421 b 799 617 710 507 754 561 b 768 107 781 447 769 278 b 868 7 767 56 814 6 b 968 107 922 10 967 51 b 1033 863 971 385 989 628 b 997 967 1040 903 1031 942 z m 1728 389 b 1946 656 1803 469 1868 576 b 1914 106 1936 472 1925 289 b 2015 6 1911 54 1963 4 b 2115 106 2072 8 2113 50 b 2150 724 2126 313 2138 518 b 2144 864 2153 769 2160 819 b 1965 954 2122 942 2042 988 b 1749 732 1890 924 1796 792 b 1611 561 1700 675 1658 614 b 1513 611 1583 531 1561 531 b 1353 849 1460 692 1413 774 b 1201 933 1314 896 1265 936 b 1068 779 1115 929 1075 856 b 1068 444 1058 669 1063 554 b 1106 86 1074 324 1089 204 b 1229 15 1114 32 1182 0 b 1299 139 1286 33 1308 82 b 1272 401 1290 229 1278 314 b 1265 628 1267 476 1265 551 b 1353 492 1293 582 1321 536 b 1586 319 1407 411 1476 315 b 1728 389 1640 321 1690 349 z "},"":{"ha":1844,"x_min":0,"x_max":0,"o":"m 40 550 b 346 96 19 328 149 164 b 838 196 513 35 708 72 b 965 669 960 313 1021 506 b 465 967 890 894 669 1000 b 40 550 268 935 75 728 z m 350 317 b 476 757 133 467 281 692 b 765 611 603 799 722 721 b 475 274 842 421 660 256 b 350 317 432 278 390 292 z m 1047 561 b 1203 104 989 394 1046 194 b 1686 176 1361 14 1558 54 b 1804 624 1801 289 1853 468 b 1622 854 1775 718 1708 801 b 1047 561 1369 1011 1122 786 z m 978 0 b 978 0 978 0 978 0 z m 1551 325 b 1268 324 1472 242 1335 233 b 1242 501 1232 369 1218 432 b 1365 669 1264 569 1307 628 b 1614 467 1497 771 1638 615 b 1551 325 1606 410 1588 361 z "},"":{"ha":1435,"x_min":0,"x_max":0,"o":"m 758 31 b 858 -69 760 -22 803 -72 b 957 31 911 -67 961 -25 b 953 147 957 69 956 108 b 1392 439 1142 147 1322 264 b 1376 738 1431 535 1425 644 b 967 913 1294 894 1117 913 b 697 778 890 913 683 881 b 758 31 731 529 751 281 z m 942 347 b 907 707 933 468 922 589 b 1092 706 965 713 1033 718 b 1194 489 1224 678 1243 578 b 942 347 1146 397 1036 347 z m 661 654 b 603 938 692 754 674 860 b 331 1042 535 1013 429 1042 b 32 829 206 1036 -24 1010 b 31 50 28 569 26 310 b 132 -51 31 -1 76 -54 b 232 50 185 -47 232 -7 b 229 317 231 139 229 228 b 661 654 417 324 611 486 z m 229 517 b 233 831 231 622 232 726 b 235 832 233 832 235 832 b 400 835 279 839 347 849 b 468 708 464 818 482 763 b 229 517 440 614 322 525 z "},"":{"ha":1093,"x_min":0,"x_max":0,"o":"m 1069 271 b 843 611 1093 432 935 513 b 775 715 811 643 786 676 b 913 792 746 824 865 839 b 1031 954 1015 713 1136 875 b 708 989 940 1019 810 1042 b 568 711 603 938 556 826 b 735 440 581 601 657 514 b 843 279 761 417 901 310 b 690 286 799 254 735 276 b 579 197 640 296 583 247 b 669 86 576 139 614 99 b 988 129 778 63 896 56 b 1069 271 1031 165 1063 215 z m 88 106 b 538 247 263 65 461 82 b 547 419 563 301 569 363 b 296 663 508 524 369 610 b 471 864 129 760 315 851 b 571 964 522 868 572 910 b 471 1065 568 1018 526 1064 b 40 658 265 1071 -44 907 b 282 422 74 560 197 485 b 332 310 315 397 368 356 b 140 299 289 261 193 285 b 17 229 90 311 31 283 b 88 106 6 179 33 118 z "},"":{"ha":1443,"x_min":0,"x_max":0,"o":"m 124 744 b 265 756 171 747 218 751 b 315 78 282 529 299 304 b 417 -22 319 26 358 -25 b 517 78 468 -19 521 22 b 465 772 499 308 482 542 b 654 788 528 778 592 782 b 754 888 706 792 757 831 b 654 989 751 939 710 993 b 124 946 478 974 301 960 b 24 844 72 942 22 903 b 124 744 26 793 68 740 z m 876 781 b 965 776 907 778 936 776 b 924 107 946 553 932 331 b 1024 6 921 53 971 3 b 1124 107 1079 8 1121 49 b 1165 775 1133 329 1147 553 b 1322 783 1219 776 1271 779 b 1422 883 1375 788 1425 826 b 1322 983 1421 933 1378 989 b 876 979 1175 972 1025 971 b 776 881 825 983 775 932 b 876 781 779 824 821 783 z "},"“":{"ha":367,"x_min":0,"x_max":0,"o":"m 140 1108 b 96 1126 129 1119 110 1128 b 32 1063 64 1126 28 1099 b 36 943 36 1024 38 983 b 100 879 36 908 67 876 b 164 943 135 881 164 907 b 160 1063 165 983 164 1024 b 140 1108 157 1081 154 1096 z m 306 1108 b 261 1126 294 1119 275 1128 b 197 1063 229 1126 193 1099 b 201 943 201 1024 203 983 b 265 879 201 908 232 876 b 329 943 300 881 329 907 b 325 1063 331 983 329 1024 b 306 1108 322 1081 319 1096 z "},"”":{"ha":367,"x_min":0,"x_max":0,"o":"m 140 1108 b 96 1126 129 1119 110 1128 b 32 1063 64 1126 28 1099 b 36 943 36 1024 38 983 b 100 879 36 908 67 876 b 164 943 135 881 164 907 b 160 1063 165 983 164 1024 b 140 1108 157 1081 154 1096 z m 306 1108 b 261 1126 294 1119 275 1128 b 197 1063 229 1126 193 1099 b 201 943 201 1024 203 983 b 265 879 201 908 232 876 b 329 943 300 881 329 907 b 325 1063 331 983 329 1024 b 306 1108 322 1081 319 1096 z "},"‘":{"ha":201,"x_min":0,"x_max":0,"o":"m 140 1108 b 96 1126 129 1119 110 1128 b 32 1063 64 1126 28 1099 b 36 943 36 1024 38 983 b 100 879 36 908 67 876 b 164 943 135 881 164 907 b 160 1063 165 983 164 1024 b 140 1108 157 1081 154 1096 z "},"’":{"ha":201,"x_min":0,"x_max":0,"o":"m 140 1108 b 96 1126 129 1119 110 1128 b 32 1063 64 1126 28 1099 b 36 943 36 1024 38 983 b 100 879 36 908 67 876 b 164 943 135 881 164 907 b 160 1063 165 983 164 1024 b 140 1108 157 1081 154 1096 z "},"P":{"ha":790,"x_min":0,"x_max":0,"o":"m 503 1069 b 31 989 404 1107 31 1196 b 74 31 25 669 39 349 b 103 -40 76 3 82 -21 b 174 -69 121 -58 149 -72 b 275 31 224 -68 282 -26 b 256 238 268 99 261 168 b 528 326 353 247 444 276 b 771 764 682 418 794 590 b 503 1069 746 926 643 1014 z m 247 438 b 244 438 246 438 246 438 b 243 438 244 438 243 438 b 231 918 235 597 229 758 b 449 878 285 917 378 906 b 457 521 626 810 579 610 b 247 438 396 475 321 449 z "},"Q":{"ha":978,"x_min":0,"x_max":0,"o":"m 615 1018 b 292 993 506 1049 394 1036 b 246 932 269 983 251 954 b 243 922 244 929 244 925 b 163 828 214 893 188 861 b 32 557 101 749 51 656 b 317 67 -12 336 101 121 b 610 92 415 43 518 56 b 688 -4 636 60 661 28 b 831 -4 721 -44 797 -42 b 831 139 871 39 868 96 b 782 199 814 158 799 179 b 875 300 817 229 849 264 b 874 838 986 453 983 686 b 615 1018 810 926 719 989 z m 476 263 b 222 454 344 229 218 324 b 439 807 225 586 332 751 b 681 750 526 847 618 810 b 661 361 797 635 756 463 b 557 514 625 411 592 463 b 421 550 529 558 468 581 b 383 413 376 522 354 460 b 482 264 415 363 449 313 b 476 263 481 264 479 263 z "},"R":{"ha":797,"x_min":0,"x_max":0,"o":"m 242 269 l 279 289 b 647 85 390 211 518 138 b 771 156 699 63 760 108 b 700 279 783 215 751 257 b 467 401 619 311 540 354 b 774 843 619 514 756 663 b 688 1060 782 924 749 1008 b 110 1075 529 1193 278 1150 b -1 956 57 1051 11 1018 b 17 864 -8 924 -3 890 l 46 8 b 147 -92 49 -43 90 -96 b 249 8 200 -89 250 -49 l 244 138 z m 231 492 l 218 900 b 567 875 297 953 536 1000 b 231 492 604 714 338 542 z "}}}
